<?xml version="1.0" encoding="utf-8"?>
<!-- Generator: Adobe Illustrator 22.0.1, SVG Export Plug-In . SVG Version: 6.00 Build 0)  -->
<svg version="1.1" id="Layer_1" xmlns="http://www.w3.org/2000/svg" xmlns:xlink="http://www.w3.org/1999/xlink" x="0px" y="0px"
	 viewBox="0 0 841.9 595.3" style="enable-background:new 0 0 841.9 595.3;" xml:space="preserve">
<style type="text/css">
	.st0{fill:#414042;}
	.st1{fill:#8C4B20;}
	.st2{fill:#754C29;}
	.st3{opacity:0.63;fill:#FFFFFF;enable-background:new    ;}
	.st4{opacity:0.63;}
	.st5{fill:#FFFFFF;}
	.st6{opacity:0.63;fill:#FFFFFF;stroke:#FFFFFF;stroke-miterlimit:10;enable-background:new    ;}
</style>
<g id="Layer_1_1_">
	<g>
		<path class="st0" d="M65.9,364.8c0-2.9,0.5-5.5,1.4-7.7s2.1-4,3.6-5.5s3.2-2.6,5.1-3.3c1.9-0.8,3.9-1.1,5.9-1.1
			c4.7,0,8.4,1.4,11.2,4.3c2.7,2.9,4.1,7.1,4.1,12.7c0,0.5,0,1.1-0.1,1.8c0,0.7-0.1,1.2-0.1,1.7H75.6c0.2,1.9,1.1,3.5,2.7,4.6
			s3.7,1.7,6.4,1.7c1.7,0,3.4-0.2,5.1-0.5s3-0.7,4.1-1.2l1.3,7.6c-0.5,0.3-1.2,0.5-2,0.8s-1.8,0.5-2.8,0.7s-2.1,0.3-3.3,0.5
			c-1.2,0.1-2.4,0.2-3.5,0.2c-3,0-5.6-0.4-7.8-1.3c-2.2-0.9-4-2.1-5.5-3.6c-1.4-1.5-2.5-3.4-3.2-5.5
			C66.3,369.5,65.9,367.2,65.9,364.8z M88,361.2c0-0.8-0.2-1.6-0.4-2.3c-0.2-0.8-0.6-1.4-1.1-2s-1.1-1.1-1.8-1.5
			c-0.7-0.4-1.6-0.6-2.7-0.6s-2,0.2-2.7,0.5c-0.8,0.4-1.4,0.8-1.9,1.4s-0.9,1.3-1.2,2c-0.3,0.8-0.5,1.6-0.6,2.4H88V361.2z"/>
		<path class="st0" d="M104.3,349.1c1.6-0.5,3.7-0.9,6.2-1.3s5.2-0.6,7.9-0.6c2.8,0,5.2,0.4,7,1.1c1.9,0.7,3.4,1.8,4.4,3.1
			c1.1,1.3,1.9,2.9,2.3,4.8c0.5,1.8,0.7,3.9,0.7,6.2v18.7h-9.4v-17.6c0-3-0.4-5.2-1.2-6.4c-0.8-1.3-2.3-1.9-4.5-1.9
			c-0.7,0-1.4,0-2.1,0.1c-0.8,0.1-1.4,0.1-2,0.2v25.6h-9.4L104.3,349.1L104.3,349.1z"/>
		<path class="st0" d="M170.1,376.9c0,5.4-1.4,9.4-4.1,12.1c-2.8,2.6-7,3.9-12.8,3.9c-2,0-4-0.2-6.1-0.5c-2-0.4-3.9-0.8-5.6-1.4
			l1.6-7.9c1.5,0.6,3,1,4.6,1.4c1.6,0.3,3.5,0.5,5.5,0.5c2.7,0,4.6-0.6,5.7-1.8c1.1-1.2,1.7-2.7,1.7-4.5v-1.2c-1,0.5-2,0.8-3.1,1
			s-2.2,0.3-3.5,0.3c-4.6,0-8.1-1.4-10.5-4.1s-3.7-6.5-3.7-11.4c0-2.4,0.4-4.7,1.1-6.6c0.8-2,1.9-3.7,3.3-5.1
			c1.4-1.4,3.2-2.5,5.3-3.3s4.5-1.2,7.1-1.2c1.1,0,2.3,0.1,3.5,0.2s2.4,0.2,3.6,0.4c1.2,0.2,2.3,0.4,3.4,0.6c1.1,0.2,2,0.5,2.9,0.7
			v27.9H170.1z M149.5,363.5c0,5.3,2.1,7.9,6.4,7.9c1,0,1.9-0.1,2.7-0.4s1.6-0.5,2.1-0.9v-15c-0.5-0.1-1-0.2-1.6-0.2
			c-0.6-0.1-1.4-0.1-2.2-0.1c-2.5,0-4.3,0.8-5.5,2.5C150.1,358.9,149.5,360.9,149.5,363.5z"/>
		<path class="st0" d="M189.2,338.4c0,1.7-0.6,3.1-1.7,4.1c-1.1,1-2.4,1.5-3.9,1.5s-2.8-0.5-3.9-1.5c-1.1-1-1.7-2.3-1.7-4.1
			c0-1.7,0.6-3.1,1.7-4.1c1.1-1,2.4-1.5,3.9-1.5s2.8,0.5,3.9,1.5C188.6,335.3,189.2,336.6,189.2,338.4z M188.3,381.1h-9.4V348h9.4
			V381.1z"/>
		<path class="st0" d="M197.1,349.1c1.6-0.5,3.7-0.9,6.2-1.3s5.2-0.6,7.9-0.6c2.8,0,5.2,0.4,7,1.1c1.9,0.7,3.4,1.8,4.4,3.1
			c1.1,1.3,1.9,2.9,2.3,4.8c0.5,1.8,0.7,3.9,0.7,6.2v18.7h-9.4v-17.6c0-3-0.4-5.2-1.2-6.4c-0.8-1.3-2.3-1.9-4.5-1.9
			c-0.7,0-1.4,0-2.1,0.1c-0.8,0.1-1.4,0.1-2,0.2v25.6H197v-32H197.1z"/>
		<path class="st0" d="M232.7,364.8c0-2.9,0.5-5.5,1.4-7.7s2.1-4,3.6-5.5s3.2-2.6,5.1-3.3c1.9-0.8,3.9-1.1,5.9-1.1
			c4.7,0,8.4,1.4,11.2,4.3c2.7,2.9,4.1,7.1,4.1,12.7c0,0.5,0,1.1-0.1,1.8c0,0.7-0.1,1.2-0.1,1.7h-21.3c0.2,1.9,1.1,3.5,2.7,4.6
			c1.6,1.1,3.7,1.7,6.4,1.7c1.7,0,3.4-0.2,5.1-0.5s3-0.7,4.1-1.2l1.3,7.6c-0.5,0.3-1.2,0.5-2,0.8s-1.8,0.5-2.8,0.7s-2.1,0.3-3.3,0.5
			c-1.2,0.1-2.4,0.2-3.5,0.2c-3,0-5.6-0.4-7.8-1.3s-4-2.1-5.5-3.6c-1.4-1.5-2.5-3.4-3.2-5.5C233,369.5,232.7,367.2,232.7,364.8z
			 M254.7,361.2c0-0.8-0.2-1.6-0.4-2.3c-0.2-0.8-0.6-1.4-1.1-2s-1.1-1.1-1.8-1.5s-1.6-0.6-2.7-0.6c-1.1,0-2,0.2-2.7,0.5
			c-0.8,0.4-1.4,0.8-1.9,1.4s-0.9,1.3-1.2,2c-0.3,0.8-0.5,1.6-0.6,2.4h12.4V361.2z"/>
		<path class="st0" d="M269.5,364.8c0-2.9,0.5-5.5,1.4-7.7s2.1-4,3.6-5.5s3.2-2.6,5.1-3.3c1.9-0.8,3.9-1.1,5.9-1.1
			c4.7,0,8.4,1.4,11.2,4.3c2.7,2.9,4.1,7.1,4.1,12.7c0,0.5,0,1.1-0.1,1.8c0,0.7-0.1,1.2-0.1,1.7h-21.3c0.2,1.9,1.1,3.5,2.7,4.6
			s3.7,1.7,6.4,1.7c1.7,0,3.4-0.2,5.1-0.5s3-0.7,4.1-1.2l1.3,7.6c-0.5,0.3-1.2,0.5-2,0.8s-1.8,0.5-2.8,0.7s-2.1,0.3-3.3,0.5
			c-1.2,0.1-2.4,0.2-3.5,0.2c-3,0-5.6-0.4-7.8-1.3c-2.2-0.9-4-2.1-5.5-3.6c-1.4-1.5-2.5-3.4-3.2-5.5
			C269.8,369.5,269.5,367.2,269.5,364.8z M291.5,361.2c0-0.8-0.2-1.6-0.4-2.3c-0.2-0.8-0.6-1.4-1.1-2s-1.1-1.1-1.8-1.5
			c-0.7-0.4-1.6-0.6-2.7-0.6s-2,0.2-2.7,0.5c-0.8,0.4-1.4,0.8-1.9,1.4s-0.9,1.3-1.2,2c-0.3,0.8-0.5,1.6-0.6,2.4h12.4V361.2z"/>
		<path class="st0" d="M327.8,356.3c-0.8-0.2-1.8-0.4-3-0.7c-1.1-0.2-2.4-0.3-3.7-0.3c-0.6,0-1.3,0.1-2.1,0.2
			c-0.8,0.1-1.4,0.2-1.9,0.3v25.3h-9.4v-31.4c1.7-0.6,3.7-1.1,6-1.7c2.3-0.5,4.8-0.8,7.7-0.8c0.5,0,1.1,0,1.8,0.1
			c0.7,0.1,1.4,0.1,2.1,0.3c0.7,0.1,1.4,0.2,2.1,0.4c0.7,0.1,1.3,0.3,1.8,0.5L327.8,356.3z"/>
		<path class="st0" d="M344.7,338.4c0,1.7-0.6,3.1-1.7,4.1s-2.4,1.5-3.9,1.5s-2.8-0.5-3.9-1.5s-1.7-2.3-1.7-4.1
			c0-1.7,0.6-3.1,1.7-4.1s2.4-1.5,3.9-1.5s2.8,0.5,3.9,1.5C344.2,335.3,344.7,336.6,344.7,338.4z M343.8,381.1h-9.4V348h9.4V381.1z"
			/>
		<path class="st0" d="M352.7,349.1c1.6-0.5,3.7-0.9,6.2-1.3s5.2-0.6,7.9-0.6c2.8,0,5.2,0.4,7,1.1c1.9,0.7,3.4,1.8,4.4,3.1
			c1.1,1.3,1.9,2.9,2.3,4.8c0.5,1.8,0.7,3.9,0.7,6.2v18.7h-9.4v-17.6c0-3-0.4-5.2-1.2-6.4c-0.8-1.3-2.3-1.9-4.5-1.9
			c-0.7,0-1.4,0-2.1,0.1c-0.8,0.1-1.4,0.1-2,0.2v25.6h-9.4v-32H352.7z"/>
		<path class="st0" d="M418.4,376.9c0,5.4-1.4,9.4-4.1,12.1c-2.8,2.6-7,3.9-12.8,3.9c-2,0-4-0.2-6.1-0.5c-2-0.4-3.9-0.8-5.6-1.4
			l1.6-7.9c1.5,0.6,3,1,4.6,1.4c1.6,0.3,3.5,0.5,5.5,0.5c2.7,0,4.6-0.6,5.7-1.8c1.1-1.2,1.7-2.7,1.7-4.5v-1.2c-1,0.5-2,0.8-3.1,1
			s-2.2,0.3-3.5,0.3c-4.6,0-8.1-1.4-10.5-4.1s-3.7-6.5-3.7-11.4c0-2.4,0.4-4.7,1.1-6.6c0.8-2,1.9-3.7,3.3-5.1s3.2-2.5,5.3-3.3
			c2.1-0.8,4.5-1.2,7.1-1.2c1.1,0,2.3,0.1,3.5,0.2s2.4,0.2,3.6,0.4c1.2,0.2,2.3,0.4,3.4,0.6s2,0.5,2.9,0.7v27.9H418.4z M397.8,363.5
			c0,5.3,2.1,7.9,6.4,7.9c1,0,1.9-0.1,2.7-0.4c0.8-0.3,1.6-0.5,2.1-0.9v-15c-0.5-0.1-1-0.2-1.6-0.2c-0.6-0.1-1.4-0.1-2.2-0.1
			c-2.5,0-4.3,0.8-5.5,2.5C398.4,358.9,397.8,360.9,397.8,363.5z"/>
		<path class="st0" d="M440.8,364.5c0-2.4,0.4-4.7,1.2-6.8c0.8-2.1,1.9-4,3.4-5.5c1.5-1.6,3.3-2.8,5.4-3.8c2.1-0.9,4.5-1.4,7.2-1.4
			c1.8,0,3.4,0.2,4.9,0.5s2.9,0.8,4.3,1.4l-2,7.5c-0.9-0.3-1.8-0.6-2.9-0.9s-2.2-0.4-3.5-0.4c-2.8,0-4.8,0.9-6.2,2.6
			c-1.4,1.7-2,4-2,6.8c0,3,0.6,5.3,1.9,6.9s3.5,2.5,6.7,2.5c1.1,0,2.4-0.1,3.7-0.3c1.3-0.2,2.5-0.5,3.6-1l1.3,7.7
			c-1.1,0.5-2.5,0.9-4.1,1.2c-1.6,0.3-3.4,0.5-5.4,0.5c-3,0-5.6-0.5-7.8-1.4c-2.2-0.9-4-2.1-5.4-3.7s-2.4-3.4-3.1-5.5
			C441.1,369.3,440.8,367,440.8,364.5z"/>
		<path class="st0" d="M470.7,364.5c0-2.4,0.4-4.7,1.2-6.8c0.8-2.1,1.9-4,3.4-5.5c1.5-1.6,3.3-2.8,5.4-3.8c2.1-0.9,4.5-1.4,7.2-1.4
			c1.8,0,3.4,0.2,4.9,0.5s2.9,0.8,4.3,1.4l-2,7.5c-0.9-0.3-1.8-0.6-2.9-0.9s-2.2-0.4-3.5-0.4c-2.8,0-4.8,0.9-6.2,2.6
			c-1.4,1.7-2,4-2,6.8c0,3,0.6,5.3,1.9,6.9s3.5,2.5,6.7,2.5c1.1,0,2.4-0.1,3.7-0.3c1.3-0.2,2.5-0.5,3.6-1l1.3,7.7
			c-1.1,0.5-2.5,0.9-4.1,1.2c-1.6,0.3-3.4,0.5-5.4,0.5c-3,0-5.6-0.5-7.8-1.4c-2.2-0.9-4-2.1-5.4-3.7s-2.4-3.4-3.1-5.5
			C471,369.3,470.7,367,470.7,364.5z"/>
	</g>
	<g>
		<path class="st1" d="M124.6,313.3c-3.4,1-7.7,1.9-13.1,2.7c-5.3,0.8-10.9,1.3-16.8,1.3c-6,0-10.9-0.8-14.9-2.4s-7.1-3.8-9.4-6.7
			c-2.3-2.9-4-6.3-4.9-10.3c-1-4-1.5-8.4-1.5-13.2v-39.1h19.9v36.7c0,6.4,0.8,11,2.5,13.9c1.7,2.8,4.8,4.3,9.5,4.3
			c1.4,0,2.9-0.1,4.5-0.2s3-0.3,4.3-0.5v-54.1h19.9V313.3z"/>
		<path class="st1" d="M208.5,280.6c0,5.6-0.8,10.7-2.5,15.2c-1.6,4.5-4,8.4-7.1,11.6s-6.9,5.7-11.5,7.4c-4.5,1.7-9.7,2.6-15.5,2.6
			c-2.4,0-4.9-0.1-7.5-0.3c-2.6-0.2-5.2-0.5-7.7-0.9s-5-0.8-7.3-1.3s-4.4-1-6.1-1.5v-98l19.9-3.2v34.9c2.2-1,4.5-1.7,6.9-2.3
			c2.4-0.5,5-0.8,7.7-0.8c5,0,9.4,0.9,13.2,2.6c3.8,1.7,7,4.2,9.6,7.4c2.6,3.2,4.5,7,5.9,11.5C207.8,270.1,208.5,275.1,208.5,280.6z
			 M188.2,280.1c0-12.8-4.7-19.2-14.1-19.2c-2,0-4.1,0.3-6.1,0.8s-3.6,1.2-4.9,2v36.1c1,0.2,2.2,0.3,3.7,0.5
			c1.5,0.1,3.2,0.2,4.9,0.2c5.4,0,9.5-1.9,12.3-5.6C186.8,291.1,188.2,286.2,188.2,280.1z"/>
		<path class="st1" d="M283.7,313.3c-3.4,1-7.7,1.9-13.1,2.7c-5.3,0.8-10.9,1.3-16.8,1.3c-6,0-10.9-0.8-14.9-2.4s-7.1-3.8-9.4-6.7
			c-2.3-2.9-4-6.3-4.9-10.3c-1-4-1.5-8.4-1.5-13.2v-39.1H243v36.7c0,6.4,0.8,11,2.5,13.9c1.7,2.8,4.8,4.3,9.5,4.3
			c1.4,0,2.9-0.1,4.5-0.2s3-0.3,4.3-0.5v-54.1h19.9L283.7,313.3L283.7,313.3z"/>
		<path class="st1" d="M302.3,247.9c3.4-1,7.7-1.9,13.1-2.7c5.3-0.8,10.9-1.3,16.8-1.3c6,0,10.9,0.8,14.9,2.3c4,1.6,7.1,3.8,9.4,6.6
			s4,6.2,4.9,10.1c1,3.9,1.5,8.3,1.5,13.1v39.6H343v-37.2c0-6.4-0.8-10.9-2.5-13.6s-4.8-4-9.5-4c-1.4,0-2.9,0.1-4.5,0.2
			s-3,0.3-4.3,0.5v54.1h-19.9L302.3,247.9L302.3,247.9z"/>
		<path class="st1" d="M380.2,228.1l19.9-3.2v20.7H424v16.5h-23.9v24.7c0,4.2,0.7,7.5,2.2,10s4.4,3.7,8.9,3.7c2.1,0,4.3-0.2,6.6-0.6
			c2.3-0.4,4.3-1,6.2-1.7l2.8,15.5c-2.4,1-5.1,1.8-8,2.5s-6.5,1.1-10.8,1.1c-5.4,0-9.9-0.7-13.5-2.2s-6.4-3.5-8.5-6.1
			s-3.6-5.8-4.5-9.5c-0.8-3.7-1.3-7.9-1.3-12.4L380.2,228.1L380.2,228.1z"/>
		<path class="st1" d="M499.9,313.3c-3.4,1-7.7,1.9-13.1,2.7s-10.9,1.3-16.8,1.3c-6,0-10.9-0.8-14.9-2.4s-7.1-3.8-9.4-6.7
			c-2.3-2.9-4-6.3-4.9-10.3c-1-4-1.5-8.4-1.5-13.2v-39.1h19.9v36.7c0,6.4,0.8,11,2.5,13.9c1.7,2.8,4.8,4.3,9.5,4.3
			c1.4,0,2.9-0.1,4.5-0.2s3-0.3,4.3-0.5v-54.1h19.9V313.3z"/>
	</g>
	<path class="st1" d="M704.8,191.3l-1.2-2l-3.7-3.9l-0.9-2.9c0,0,0,0,0-0.1s-0.1-0.2-0.1-0.3c-0.2-0.7-0.6-1.4-0.6-2.2
		c0-0.1,0-0.2,0-0.4c0-0.4,0-0.7-0.1-1.1l-1.2,0.2l-0.7-1.5l-2.9-0.3l-5.9,2.4l-6.8-1.9l-5.9-0.3l-1-1.5l-5.4-0.7l-0.7-1.5l-4.4-0.9
		l-5.1,2.4v4.4H658l-3.4,1.7l-3.6-2l-6.8-1.7l-1.7-3.2l-5.8-1.7l-3.4,0.2l-6.6-2.9l-0.5-1.5l3.9-3.1l-1.9-2.9l1.9-2.9l-1.9,1.2
		l-2-1.9l-5.6,1.7l-4.4-1l-3.4,1.5l-4.1-1l-8.8,1.5l-3.6,1.9l-2.7,0.5l-3.7,1.9h-2.4l-0.3-1.2l-5.1,0.7l-1.7-2.2l-1.5,0.5L575,169
		l-8.5,4.6l-2.7,3.7l-0.7,4.4l-0.3,0.3l-1.9,2.4l-4.9,3.4l-4.4,1l-3.2,4.4l-2.9,1.7l-2.4,5.1l-3.4,2.7l-5.1,7.5l-1.2,3.4l0.7-1.2
		l1.5,3.4l-1.7,3.2l0.5,5.9l-2.9,7.5l-3.4,3.4l2.7,3.1l-0.3,2l2.9-0.5l-2.4,1l-1-0.7l-0.7,3.2h1.7l-1.7,0.7l2.4,0.3l-1.2,1l1.5,0.3
		l-0.5,0.9l3.4-0.9l-1.9,0.7l1.5,0.7l-1.7,1l0.7,1.2l0.9-0.5l-0.5,0.9l1.2-0.7l0.5,3.4l1.5,0.7l1.5,0.7l-0.7,1.2l1.2,0.5l0.2,3.2
		l1.2-0.2l-1.7,0.5l2.7,2.7l-0.2,1.5l4.1,2.2l8,7.6l4.1,1.7l4.9-2.4l7.6-1l7,1.9l7.3-3.4l5.1-2l9-1.9l-1.5,1l3.7,0.3l2.4,2.2
		l1.2-0.7l-1.2,1l1.7,0.2l-1.2,0.2l0.5,0.7l1.2-0.7l-1.2,1.5l2.4,3.4l2.7-0.3v-1l0.5,1l-0.2-1.2l0.7,1.2l0.5-1.5l1,1l0,0
		c1.1-0.4,2.2-0.8,3.3-1.2l-0.1-0.5l0.3,0.4C666.1,253.8,693,214.1,704.8,191.3z"/>
	<path class="st2" d="M770.7,257.2h-1.2l0.2-5.1l-1.7-0.7l-3.9,2.4l-6.6,0.7l-2.9,1.7l-2.2-0.7l-3.9,1.9l-5.1-4.6l-2.2,0.3l2.9-1.7
		l-0.5-1.7l-8-8l-3.4-1.2l-0.7-1.2l-0.7-0.7l-0.2,1.5l-5.1-11L721,226l-1.9-8.2l0.7,0.5l-1.9-3.6l-4.4-3.2l-1.2-3.4h0.9l-2.4-1.9
		l-4-6.9c-19.2,50.5-59.4,85.8-87.1,105.3l1,1.8l8,7.8l1.7,4.9l1.9,1l-1.7,0.5l4.4,8.8l-1.5,2.4l1.7,3.4l1.7,3.9l-0.4,2.8
		c49.5,4.4,83.9-20.3,100.8-36.5l-0.3-0.5h0.9c1.8-1.8,3.5-3.5,4.9-5l4-5.3l1.7-1.3c0.7-0.9,1.1-1.4,1.1-1.4
		c-0.2,0.4-0.5,0.7-0.7,1.1l6.2-4.9l6.1-7.8l8-18.8v-2.2l-0.2-1.2L770.7,257.2z"/>
	<path class="st0" d="M740.2,332.3l-1-0.8v-0.2l-0.9-6.4l0.7-1.7h-1l1.5-3.2l-2.7-3.7l1.6-4.7c-35.6,36.2-85.5,48.2-100,51.1
		l8.2,13.7l1.6,13.2l7.7,12.5l3.3,5.6l0.2,2.7l-1.5,1l1.7,4.6l1.2-0.7l3.6,2.5l8.3-2.6l7.1,0.8l7.1-1.9l10.5-7.2l3.4-4.4l1.5-1.7
		l3.9-3.1l3.2-8.2l-0.5,0.7l-1-1.2l10.8-6.2l1-6.8l-2.1-5.9l0.3-3.2l0.7,0.7l5.4-3.6l2.2-3.6l11-5l0.5-1l3.4-4.8l-0.6-7.1l0.7-0.7
		l-0.4-5.4l1.3-2.4L740.2,332.3z"/>
	<polygon class="st0" points="741.7,382.3 740.2,383.2 739.6,385.4 738.1,386.2 737.6,385.6 737.3,387.2 736.8,387.1 735.5,388.8 
		735.8,387.9 734.5,388.9 734.6,389.6 733.9,389.8 734.3,388.9 733,389.5 732.8,390.6 732.3,389.8 728.3,390.2 726,393 725.2,398.9 
		722,401.4 720.6,403.6 719.7,409.9 721.2,411.1 725.9,410.9 736.8,396.8 737.8,394.6 738.9,394 739.5,390.8 740.2,390.7 
		740.2,392.1 741.3,391 742.2,385.1 741.2,383.1 	"/>
</g>
<g id="Layer_2_1_">
	<polygon class="st3" points="663.4,392.6 684.9,367.1 688.9,374.1 709,358.8 688.1,384.3 683.1,376.7 	"/>
	<g class="st4">
		<path class="st5" d="M611.3,222.2h23.1c0,0-1.2-23.6-18.8-24.9v23c0,0-1.2-0.8-1.1-7.4c0.1-6.6,0-17,0-17h-3.3h-0.9H607
			c0,0-0.1,10.3,0,17c0.1,6.6-1.1,7.4-1.1,7.4v-23c-17.6,1.3-18.8,24.9-18.8,24.9h23.1H611.3z"/>
		<path class="st5" d="M592.6,227.1c5,4.2,10.3,3.6,10.3,3.6s10.1-0.5,15-0.1c4.8,0.5,9.5-2.2,9.5-2.2c2.8-3.3,8.9-3.6,8.9-3.6v-0.9
			l-2.1-0.5h-47.1l-1.6,0.3v0.8l0.7,0.5C589.5,225.2,592.6,227.1,592.6,227.1z"/>
	</g>
	<path class="st6" d="M692.5,294.4c0,0-14-9.3,0-22V285h4.6h2.1h4.6v-12.6c14,12.6,0,22,0,22v12.4c14.5-3.4,18.1-14.9,18.1-22.8
		c0-13-10.5-23.5-23.5-23.5S674.9,271,674.9,284c0,10.9,7.5,20.1,17.5,22.7v-12.3H692.5z"/>
</g>
</svg>
